<svg xmlns="http://www.w3.org/2000/svg" width="24" height="24" viewBox="0 0 24 24">
    <g fill="none" fill-rule="evenodd">
        <path fill="#B7D66C" d="M11.225 19.173c-.006-.151-.009-.291-.01-.428a27.1 27.1 0 0 0-.417.014c-.321.015-.65.053-.999.115-.443.092-.918.092-1.362.154-.253.031-.887.062-.855.34.032.339.792.4 1.045.432.475.061.797.273 1.299.339.617.081 1.18.046 1.71.031.887-.026 2.597-.446 3.105-.494.254-.024.474-.129.412-.401-.035-.154-.112-.206-.26-.23-.507-.085-.817-.14-1.26-.202a11.057 11.057 0 0 0-1.72-.11c-.023.139-.045.281-.066.432l-.622.008z"></path>
        <path fill="#805A3F" d="M16.374 10.675a.904.904 0 0 1-.194-.121 2.734 2.734 0 0 1-.533.227c-.647.205-1.386.389-2.195 1.284 0 0 .36-1.303 1.568-1.973a1.81 1.81 0 0 0 .382-.361c-.035-.026-.07-.052-.107-.072a1.064 1.064 0 0 0-.352-.108c-.254.145-.71.312-1.069.6-.327.296-.64.63-.886 1.125-.266.523-.45 1.026-.68 1.835.01-.404.095-1.03-.02-1.472-.113-.545-.324-.873-.654-1.303 0 0-.276-.389-.285-.93-.165-.009-.33-.015-.495-.016-.032.294-.015.914.518 1.558.634.764.136 1.693.153 1.717-.314-.336-1.072-.736-1.69-1.066 0 0-.723-.311-1.378-.71-.271-.182-.5-.401-.685-.638-.041.02-.083.038-.128.058a1.912 1.912 0 0 1-.48.132c.204.39.502.668.903.938.976.655 2.013.99 2.637 1.758 0 0 .623.692.575 2.365 0 1.104-.067 1.94-.063 3.035 0 .203.003.412.009.636l.622-.012c.022-.224.043-.435.066-.64.255-2.34.57-3.55 1.435-4.93.649-1.032 1.287-1.578 2.187-1.993a4.515 4.515 0 0 0 1.265-.821 1.17 1.17 0 0 1-.426-.102"></path>
        <path fill="#368C0E" d="M20.175 8.885c-.47-.06-.97-.089-1.444 0-.546.102-.967.462-1.49.55-1.036.173-2.631.118-3.69-.062-.452-.077-.799-.357-1.236-.447-.627-.13-1.527-.03-2.185-.066-.944-.052-1.747-.041-2.637.247-1.31.425-1.683-.269-2.876-.313-.68-.025-1.81.209-2.344-.364a.997.997 0 0 1-.212-.35c.06.351.22.638.511.922.418.407 1.09.376 1.448.655.316.246.57.655 1.024.85.698.299 1.435.463 2.12.39.163-.017.324-.043.48-.089l.128-.039c.77-.241 1.04-.455 2.094-.545.33-.028.66-.037.988-.035.165.002.33.005.496.012.781.028 1.562.1 2.347.12.372.009.84-.061 1.246-.022.124.011.244.033.352.071.038.014.072.032.107.05.292.144.487.4.778.553.06.032.123.06.194.082.152.045.293.064.426.068.732.02 1.215-.497 1.932-.668.271-.064.613.024.871-.112.49-.257.338-.685.663-.985.305-.282.938-.416 1.235-.732-.322.228-.867.319-1.326.26"></path>
        <path fill="#60B234" d="M21.535 7.596c-.257-.312-.988-.494-1.3-1.016-.503-.836-1.076-1.148-2.042-1.295-.882-.134-1.51-.01-2.393-.155-.903-.148-1.128-.703-1.9-.925-.986-.284-2.283-.206-3.295-.155-1.218.097-2.682-.02-3.87.287-.914.237-1.34 1.037-2.26 1.3-.971.28-1.624.442-2.168 1.194-.25.346-.397.829-.246 1.25a1 1 0 0 0 .212.348c.533.574 1.664.34 2.344.365 1.193.044 1.566.738 2.875.313.89-.288 1.694-.3 2.638-.247.658.037 1.558-.065 2.185.065.437.091.784.371 1.236.448 1.058.18 2.654.235 3.69.062.523-.088.944-.449 1.49-.55.473-.089.974-.06 1.444 0 .46.06 1.004-.031 1.326-.258.312-.22.416-.567.034-1.03"></path>
    </g>
</svg>
